<svg version="1.1" xmlns="http://www.w3.org/2000/svg" xmlns:xlink="http://www.w3.org/1999/xlink" width="512.000000pt" height="512.000000pt" viewBox="0,0,256,256"><g fill="#ff6e15" fill-rule="nonzero" stroke="none" stroke-width="1" stroke-linecap="butt" stroke-linejoin="miter" stroke-miterlimit="10" stroke-dasharray="" stroke-dashoffset="0" font-family="none" font-weight="none" font-size="none" text-anchor="none" style="mix-blend-mode: normal"><g transform="translate(0.15876,0.02488) scale(0.5,0.5)"><g transform="translate(0,512) scale(0.1,-0.1)"><path d="M1795,5059c-272,-29 -503,-144 -695,-345c-327,-343 -401,-840 -187,-1271c73,-148 200,-301 325,-390l67,-48l-55,-8c-328,-49 -600,-185 -830,-416c-195,-195 -329,-438 -384,-696c-32,-145 -36,-247 -36,-866v-626l172,-51c337,-99 726,-186 1018,-227c485,-67 1006,-78 1410,-30c69,8 130,15 137,15c6,0 -46,57 -115,127c-150,151 -240,274 -321,438c-117,239 -167,438 -178,706c-19,478 162,928 512,1274c83,82 227,197 295,235c8,5 12,11 9,15c-17,16 -197,69 -302,89l-117,22l63,46c130,96 274,272 340,417c69,154 96,264 104,436c30,674 -559,1227 -1232,1154z"></path><path d="M3625,2859c-241,-31 -380,-69 -535,-148c-437,-220 -729,-654 -769,-1142c-26,-318 64,-653 244,-914c27,-38 101,-122 164,-185c172,-172 339,-278 545,-345c183,-60 359,-80 558,-64c348,27 634,161 876,407c215,219 343,464 393,752c19,108 16,393 -5,503c-55,285 -198,542 -419,754c-228,217 -522,349 -842,378c-38,3 -86,8 -105,9c-19,2 -66,0 -105,-5zM3708,2619c41,-36 103,-66 147,-71c23,-2 32,2 42,23c10,20 25,28 69,38c76,17 109,9 177,-45c56,-43 59,-48 53,-80c-3,-19 -9,-50 -12,-69c-9,-49 8,-65 67,-65c54,0 69,-15 69,-69c0,-29 2,-31 38,-31c21,0 58,-11 85,-26c68,-36 83,-28 111,59c10,30 31,19 90,-48l58,-66l-16,-33c-11,-23 -16,-59 -15,-113c1,-70 -3,-89 -40,-179c-60,-148 -55,-176 39,-209c60,-21 68,-30 76,-83c14,-100 53,-158 129,-197l54,-27l-5,-47c-10,-76 -40,-192 -74,-279c-17,-45 -33,-82 -36,-82c-6,0 -73,136 -95,196c-12,30 -28,58 -37,61c-24,10 -59,-39 -73,-101c-14,-65 -37,-91 -70,-81c-12,4 -53,36 -90,71c-57,54 -74,64 -104,64c-48,0 -70,-38 -85,-148c-16,-108 -8,-317 15,-390c17,-55 81,-132 110,-132c32,0 12,-21 -57,-62c-87,-50 -214,-100 -335,-130c-73,-18 -118,-22 -263,-22c-161,-1 -184,1 -285,28c-222,57 -413,165 -563,318c-220,224 -333,472 -357,788c-18,232 58,517 191,717c58,87 58,87 67,57c18,-63 20,-324 3,-434c-17,-111 -13,-155 17,-174c12,-8 22,-8 34,0c22,14 31,45 32,112c1,28 5,52 9,52c5,0 41,-33 80,-74c50,-51 72,-82 72,-98c0,-14 15,-54 34,-89c18,-35 43,-94 56,-132c22,-68 51,-97 96,-97c21,0 54,-28 54,-46c0,-7 -15,-16 -34,-20c-55,-10 -69,-33 -64,-106c6,-93 43,-165 133,-258c44,-45 79,-91 85,-109c9,-33 4,-82 -12,-113c-27,-55 -26,-220 3,-254c11,-14 75,-8 97,9c7,5 12,33 12,67c0,107 63,241 138,292c133,91 157,131 148,240c-7,87 -4,99 54,168c70,85 84,136 56,205c-27,64 -72,70 -194,25c-117,-43 -136,-41 -193,20c-26,28 -51,50 -55,50c-5,0 -38,-18 -74,-40c-36,-22 -70,-40 -77,-40c-6,0 -29,15 -52,33c-22,17 -54,41 -72,52c-80,50 -55,92 72,120c84,18 109,38 73,59c-10,6 -63,29 -118,51c-60,25 -105,49 -114,63c-14,21 -12,24 21,56c50,47 117,76 177,76c94,0 148,-37 236,-162c60,-85 125,-153 153,-161c9,-2 27,0 39,4c31,12 29,51 -6,108c-56,91 -67,173 -33,246c21,45 49,73 117,119c52,34 106,107 68,92c-10,-4 -36,-10 -56,-13c-49,-7 -50,11 -3,38c29,17 33,24 24,35c-14,17 -16,16 46,39c52,19 105,63 105,87c0,11 -14,13 -65,10c-64,-4 -64,-4 -71,24c-14,61 -48,70 -104,29c-50,-37 -86,-33 -111,10c-12,19 -26,35 -32,35c-5,0 -31,-13 -56,-29c-25,-16 -64,-34 -85,-41c-36,-12 -41,-11 -57,9c-36,44 -14,65 181,174c79,44 99,71 87,119c-10,39 -32,41 -95,7c-61,-32 -89,-34 -106,-7c-15,24 -4,31 72,44c114,20 140,18 180,-17z"></path></g></g></g></svg>