<svg height="24" viewBox="0 0 24 24" width="24" xmlns="http://www.w3.org/2000/svg">
<style type="text/css">
	.st0{fill-rule:evenodd;clip-rule:evenodd;fill:#2494DA;}
	.st1{fill:#2494DA;}
</style>
<path class="st0" d="M1.2,15l1.5,0.4l-0.1,1.2c0,0.2,0.1,0.3,0.2,0.4l0.5,0.3L3,17.7c-0.2,0.2-0.1,0.5,0.1,0.7c0,0,0,0,0,0l0.5,0.3
	l0,1.3c0,0.4,0.3,0.7,0.7,0.7h2.2c0.1,0,0.2,0,0.2,0.1c0.2,0.6,0.4,1.2,0.6,1.9c0,0.1,0.1,0.2,0.3,0.2h10c0.1,0,0.3-0.1,0.3-0.3
	c0,0,0-0.1,0-0.1c-0.3-0.7-0.7-1.6-1-2.6c-0.1-0.2,0-0.5,0.1-0.7c0.3-0.5,0.6-1,1-1.4c0.7-1.1,1.4-2,1.9-3.2
	c0.1-0.1,0.1-0.3,0.2-0.4h0.4l0.8,1.5c-0.4,0.4-0.3,1.1,0.1,1.5c0.4,0.4,1.1,0.3,1.5-0.1c0.4-0.4,0.3-1.1-0.1-1.5
	c-0.3-0.2-0.7-0.3-1-0.2l-0.9-1.6c0-0.1-0.1-0.1-0.2-0.1h-4.2l0,0c0.2-0.2,0.2-0.4,0.1-0.6l-0.5-0.8c0.1-0.1,0.1-0.3,0.2-0.5l1-0.2
	c0.2,0,0.4-0.2,0.4-0.5v-0.6h3.5c0-0.2,0-0.3,0-0.5c0-0.4,0-0.8-0.1-1.2c-0.1-0.7-0.3-1.3-0.5-2h0.3c0.1,0,0.2,0,0.2-0.1l0.9-1.6
	c0.5,0.2,1.1-0.1,1.3-0.6S23,3.5,22.5,3.3c-0.5-0.2-1.1,0.1-1.3,0.6c-0.1,0.4-0.1,0.8,0.2,1l-0.8,1.5h-4.6l-0.6-0.6
	c-0.2-0.2-0.4-0.2-0.6-0.1l-0.8,0.5c-0.1-0.1-0.3-0.1-0.5-0.2l-0.2-1c0-0.2-0.2-0.4-0.5-0.4H11c-0.2,0-0.4,0.2-0.5,0.4l-0.2,1
	c-0.2,0.1-0.3,0.1-0.5,0.2L9.1,5.7C8.9,5.6,8.7,5.6,8.5,5.7L7.3,6.9C7.2,7.1,7.1,7.3,7.3,7.5l0.5,0.8C7.7,8.5,7.7,8.6,7.6,8.8L6.7,9
	C6.4,9,6.3,9.2,6.3,9.5v1.7c0,0.2,0.2,0.4,0.4,0.5l1,0.2c0.1,0.2,0.1,0.3,0.2,0.5l-0.5,0.8c-0.1,0.2-0.1,0.4,0.1,0.6l1.2,1.2
	C8.7,15,8.9,15,9.1,14.9l0.8-0.5c0.1,0.1,0.3,0.1,0.5,0.2l0.2,1c0,0.2,0.2,0.4,0.5,0.4h1.7c0.2,0,0.4-0.2,0.5-0.4l0.2-1
	c0.2-0.1,0.3-0.1,0.5-0.2l0.8,0.5c0.2,0.1,0.4,0.1,0.6-0.1l0.6-0.6h4.2c0.1-0.2,0.2-0.3,0.2-0.5c0.4-1,0.6-2.1,0.6-3.1h0.2
	c0.1,0.6,0.7,0.9,1.3,0.7c0.6-0.1,0.9-0.7,0.7-1.3s-0.7-0.9-1.3-0.7c-0.4,0.1-0.6,0.4-0.7,0.7h-3.6V9.5c0-0.2-0.2-0.4-0.4-0.5
	l-1-0.2C16.1,8.6,16,8.5,16,8.3l0.5-0.8c0.1-0.2,0.1-0.4-0.1-0.6l0,0h3.9c-0.1-0.2-0.1-0.4-0.2-0.5C17.9,1.8,12.4-0.2,7.8,2
	C7.6,2.1,7.4,2.2,7.2,2.3c-2.4,1.3-4,3.7-4.3,6.5c0,0.1,0,0.1,0,0.2c0.4,1.2,0.4,2,0,2.4c0,0,0,0,0,0l-2,2.8
	c-0.2,0.2-0.1,0.5,0.1,0.7C1.1,14.9,1.1,14.9,1.2,15L1.2,15z"/>
<g>
	<path class="st1" d="M9.1,7.1h1.4v5.8H9.1V7.1z"/>
	<path class="st1" d="M12.5,7.1h1.3l1.5,5.8h-1.5l-0.2-1.1h-1.1l-0.2,1.1H11L12.5,7.1z M13.1,8.7l-0.4,2h0.7L13.1,8.7z"/>
</g>
</svg>
