<?xml version="1.0"?>
<svg width="24" height="24" xmlns="http://www.w3.org/2000/svg" xmlns:svg="http://www.w3.org/2000/svg">
 <style type="text/css">.st0{fill-rule:evenodd;clip-rule:evenodd;fill:#57b952;}
	.st1{fill:#57b952;}</style>
 <g class="layer">
  <title>Layer 1</title>
  <path class="st0" d="m1.2,15l1.5,0.4l-0.1,1.2c0,0.2 0.1,0.3 0.2,0.4l0.5,0.3l-0.3,0.4c-0.2,0.2 -0.1,0.5 0.1,0.7c0,0 0,0 0,0l0.5,0.3l0,1.3c0,0.4 0.3,0.7 0.7,0.7l2.2,0c0.1,0 0.2,0 0.2,0.1c0.2,0.6 0.4,1.2 0.6,1.9c0,0.1 0.1,0.2 0.3,0.2l10,0c0.1,0 0.3,-0.1 0.3,-0.3c0,0 0,-0.1 0,-0.1c-0.3,-0.7 -0.7,-1.6 -1,-2.6c-0.1,-0.2 0,-0.5 0.1,-0.7c0.3,-0.5 0.6,-1 1,-1.4c0.7,-1.1 1.4,-2 1.9,-3.2c0.1,-0.1 0.1,-0.3 0.2,-0.4l0.4,0l0.8,1.5c-0.4,0.4 -0.3,1.1 0.1,1.5c0.4,0.4 1.1,0.3 1.5,-0.1c0.4,-0.4 0.3,-1.1 -0.1,-1.5c-0.3,-0.2 -0.7,-0.3 -1,-0.2l-0.9,-1.6c0,-0.1 -0.1,-0.1 -0.2,-0.1l-4.2,0l0,0c0.2,-0.2 0.2,-0.4 0.1,-0.6l-0.5,-0.8c0.1,-0.1 0.1,-0.3 0.2,-0.5l1,-0.2c0.2,0 0.4,-0.2 0.4,-0.5l0,-0.6l3.5,0c0,-0.2 0,-0.3 0,-0.5c0,-0.4 0,-0.8 -0.1,-1.2c-0.1,-0.7 -0.3,-1.3 -0.5,-2l0.3,0c0.1,0 0.2,0 0.2,-0.1l0.9,-1.6c0.5,0.2 1.1,-0.1 1.3,-0.6s-0.3,-1 -0.8,-1.2c-0.5,-0.2 -1.1,0.1 -1.3,0.6c-0.1,0.4 -0.1,0.8 0.2,1l-0.8,1.5l-4.6,0l-0.6,-0.6c-0.2,-0.2 -0.4,-0.2 -0.6,-0.1l-0.8,0.5c-0.1,-0.1 -0.3,-0.1 -0.5,-0.2l-0.2,-1c0,-0.2 -0.2,-0.4 -0.5,-0.4l-1.8,0c-0.2,0 -0.4,0.2 -0.5,0.4l-0.2,1c-0.2,0.1 -0.3,0.1 -0.5,0.2l-0.7,-0.5c-0.2,-0.1 -0.4,-0.1 -0.6,0l-1.2,1.2c-0.1,0.2 -0.2,0.4 0,0.6l0.5,0.8c-0.1,0.2 -0.1,0.3 -0.2,0.5l-0.9,0.2c-0.3,0 -0.4,0.2 -0.4,0.5l0,1.7c0,0.2 0.2,0.4 0.4,0.5l1,0.2c0.1,0.2 0.1,0.3 0.2,0.5l-0.5,0.8c-0.1,0.2 -0.1,0.4 0.1,0.6l1.2,1.2c0,0 0.2,0 0.4,-0.1l0.8,-0.5c0.1,0.1 0.3,0.1 0.5,0.2l0.2,1c0,0.2 0.2,0.4 0.5,0.4l1.7,0c0.2,0 0.4,-0.2 0.5,-0.4l0.2,-1c0.2,-0.1 0.3,-0.1 0.5,-0.2l0.8,0.5c0.2,0.1 0.4,0.1 0.6,-0.1l0.6,-0.6l4.2,0c0.1,-0.2 0.2,-0.3 0.2,-0.5c0.4,-1 0.6,-2.1 0.6,-3.1l0.2,0c0.1,0.6 0.7,0.9 1.3,0.7c0.6,-0.1 0.9,-0.7 0.7,-1.3s-0.7,-0.9 -1.3,-0.7c-0.4,0.1 -0.6,0.4 -0.7,0.7l-3.6,0l0,-0.5c0,-0.2 -0.2,-0.4 -0.4,-0.5l-1,-0.2c-0.1,-0.2 -0.2,-0.3 -0.2,-0.5l0.5,-0.8c0.1,-0.2 0.1,-0.4 -0.1,-0.6l0,0l3.9,0c-0.1,-0.2 -0.1,-0.4 -0.2,-0.5c-2.2,-4.6 -7.7,-6.6 -12.3,-4.4c-0.2,0.1 -0.4,0.2 -0.6,0.3c-2.4,1.3 -4,3.7 -4.3,6.5c0,0.1 0,0.1 0,0.2c0.4,1.2 0.4,2 0,2.4c0,0 0,0 0,0l-2,2.8c-0.2,0.2 -0.1,0.5 0.1,0.7c0.1,0 0.1,0 0.2,0.1l0,0z" fill="#fd9d24" id="svg_1"/>
  <g id="svg_2" transform="matrix(1 0 0 1 0 0)">
   <path class="st1" d="m9.1,7.1l1.4,0l0,5.8l-1.4,0l0,-5.8z" id="svg_3"/>
   <path class="st1" d="m12.5,7.1l1.3,0l1.5,5.8l-1.5,0l-0.2,-1.1l-1.1,0l-0.2,1.1l-1.3,0l1.5,-5.8zm0.6,1.6l-0.4,2l0.7,0l-0.3,-2z" id="svg_4"/>
  </g>
 </g>
</svg>