<?xml version="1.0" encoding="UTF-8"?>
<svg xmlns="http://www.w3.org/2000/svg" xmlns:xlink="http://www.w3.org/1999/xlink" width="24px" height="24px" viewBox="0 0 24 24" version="1.1">
<g id="surface1">
<path style=" stroke:none;fill-rule:nonzero;fill:rgb(100%,43.137255%,8.235294%);fill-opacity:1;" d="M 8.429688 0.289062 C 7.152344 0.425781 6.070312 0.964844 5.171875 1.90625 C 3.636719 3.511719 3.292969 5.84375 4.292969 7.863281 C 4.636719 8.558594 5.230469 9.273438 5.816406 9.691406 L 6.132812 9.917969 L 5.875 9.953125 C 4.335938 10.183594 3.0625 10.820312 1.984375 11.902344 C 1.070312 12.816406 0.441406 13.957031 0.183594 15.167969 C 0.0351562 15.847656 0.015625 16.324219 0.015625 19.226562 L 0.015625 22.160156 L 0.820312 22.398438 C 2.402344 22.863281 4.222656 23.269531 5.59375 23.464844 C 7.867188 23.777344 10.308594 23.828125 12.203125 23.605469 C 12.527344 23.566406 12.8125 23.535156 12.84375 23.535156 C 12.871094 23.535156 12.628906 23.265625 12.304688 22.9375 C 11.601562 22.230469 11.179688 21.652344 10.800781 20.886719 C 10.253906 19.765625 10.019531 18.832031 9.964844 17.574219 C 9.878906 15.335938 10.726562 13.226562 12.367188 11.605469 C 12.753906 11.21875 13.429688 10.679688 13.75 10.503906 C 13.785156 10.480469 13.804688 10.449219 13.792969 10.433594 C 13.710938 10.355469 12.867188 10.109375 12.375 10.015625 L 11.828125 9.910156 L 12.121094 9.695312 C 12.730469 9.246094 13.40625 8.421875 13.714844 7.742188 C 14.039062 7.019531 14.167969 6.503906 14.203125 5.699219 C 14.34375 2.539062 11.582031 -0.0546875 8.429688 0.289062 Z M 8.429688 0.289062 "/>
<path style=" stroke:none;fill-rule:nonzero;fill:rgb(100%,43.137255%,8.235294%);fill-opacity:1;" d="M 17.007812 10.601562 C 15.878906 10.746094 15.226562 10.925781 14.5 11.292969 C 12.449219 12.324219 11.082031 14.359375 10.894531 16.648438 C 10.773438 18.136719 11.195312 19.707031 12.039062 20.933594 C 12.164062 21.109375 12.511719 21.503906 12.808594 21.800781 C 13.613281 22.605469 14.394531 23.101562 15.363281 23.417969 C 16.21875 23.699219 17.042969 23.792969 17.976562 23.714844 C 19.609375 23.589844 20.949219 22.960938 22.082031 21.808594 C 23.089844 20.78125 23.691406 19.632812 23.925781 18.285156 C 24.015625 17.777344 24 16.441406 23.902344 15.925781 C 23.644531 14.589844 22.972656 13.386719 21.9375 12.390625 C 20.871094 11.375 19.492188 10.753906 17.992188 10.621094 C 17.8125 10.605469 17.589844 10.582031 17.5 10.578125 C 17.410156 10.566406 17.191406 10.578125 17.007812 10.601562 Z M 17.394531 11.726562 C 17.589844 11.894531 17.878906 12.035156 18.085938 12.058594 C 18.191406 12.066406 18.234375 12.050781 18.28125 11.949219 C 18.328125 11.855469 18.398438 11.820312 18.605469 11.773438 C 18.960938 11.691406 19.117188 11.730469 19.433594 11.984375 C 19.699219 12.183594 19.710938 12.207031 19.683594 12.359375 C 19.667969 12.449219 19.640625 12.59375 19.628906 12.683594 C 19.585938 12.910156 19.664062 12.988281 19.941406 12.988281 C 20.195312 12.988281 20.265625 13.058594 20.265625 13.308594 C 20.265625 13.445312 20.273438 13.457031 20.441406 13.457031 C 20.542969 13.457031 20.714844 13.507812 20.839844 13.578125 C 21.160156 13.746094 21.230469 13.707031 21.363281 13.300781 C 21.410156 13.160156 21.507812 13.210938 21.785156 13.527344 L 22.054688 13.835938 L 21.980469 13.988281 C 21.929688 14.097656 21.90625 14.265625 21.910156 14.519531 C 21.914062 14.847656 21.894531 14.9375 21.722656 15.359375 C 21.441406 16.050781 21.464844 16.183594 21.90625 16.339844 C 22.1875 16.4375 22.222656 16.480469 22.261719 16.726562 C 22.328125 17.195312 22.511719 17.46875 22.867188 17.652344 L 23.121094 17.777344 L 23.097656 17.996094 C 23.050781 18.355469 22.910156 18.898438 22.75 19.304688 C 22.667969 19.515625 22.59375 19.691406 22.582031 19.691406 C 22.550781 19.691406 22.238281 19.050781 22.136719 18.769531 C 22.078125 18.628906 22.003906 18.5 21.960938 18.484375 C 21.847656 18.4375 21.683594 18.667969 21.621094 18.957031 C 21.554688 19.261719 21.445312 19.386719 21.292969 19.339844 C 21.234375 19.320312 21.042969 19.167969 20.871094 19.003906 C 20.601562 18.753906 20.523438 18.707031 20.382812 18.707031 C 20.15625 18.707031 20.054688 18.882812 19.984375 19.398438 C 19.910156 19.90625 19.945312 20.886719 20.054688 21.226562 C 20.132812 21.484375 20.433594 21.847656 20.570312 21.847656 C 20.71875 21.847656 20.625 21.945312 20.300781 22.136719 C 19.894531 22.371094 19.300781 22.605469 18.730469 22.746094 C 18.390625 22.832031 18.179688 22.847656 17.5 22.847656 C 16.746094 22.855469 16.636719 22.84375 16.164062 22.71875 C 15.121094 22.449219 14.226562 21.945312 13.523438 21.226562 C 12.492188 20.175781 11.964844 19.015625 11.851562 17.535156 C 11.765625 16.445312 12.121094 15.109375 12.746094 14.171875 C 13.019531 13.765625 13.019531 13.765625 13.058594 13.90625 C 13.144531 14.199219 13.152344 15.425781 13.074219 15.941406 C 12.996094 16.460938 13.011719 16.667969 13.152344 16.753906 C 13.210938 16.792969 13.257812 16.792969 13.3125 16.753906 C 13.417969 16.691406 13.457031 16.542969 13.464844 16.230469 C 13.46875 16.097656 13.488281 15.988281 13.503906 15.988281 C 13.527344 15.988281 13.699219 16.140625 13.878906 16.332031 C 14.113281 16.574219 14.21875 16.71875 14.21875 16.792969 C 14.21875 16.859375 14.289062 17.046875 14.378906 17.210938 C 14.460938 17.375 14.578125 17.652344 14.640625 17.828125 C 14.742188 18.148438 14.878906 18.285156 15.089844 18.285156 C 15.1875 18.285156 15.34375 18.414062 15.34375 18.5 C 15.34375 18.53125 15.273438 18.574219 15.183594 18.59375 C 14.925781 18.640625 14.859375 18.746094 14.882812 19.089844 C 14.910156 19.527344 15.085938 19.863281 15.507812 20.300781 C 15.714844 20.511719 15.878906 20.726562 15.90625 20.808594 C 15.949219 20.964844 15.925781 21.195312 15.847656 21.339844 C 15.722656 21.597656 15.726562 22.371094 15.863281 22.53125 C 15.914062 22.597656 16.214844 22.566406 16.316406 22.488281 C 16.351562 22.464844 16.375 22.332031 16.375 22.175781 C 16.375 21.671875 16.667969 21.042969 17.019531 20.804688 C 17.644531 20.378906 17.757812 20.191406 17.714844 19.679688 C 17.683594 19.273438 17.695312 19.214844 17.96875 18.894531 C 18.296875 18.496094 18.363281 18.253906 18.230469 17.933594 C 18.105469 17.632812 17.894531 17.605469 17.320312 17.816406 C 16.773438 18.015625 16.683594 18.007812 16.417969 17.722656 C 16.292969 17.589844 16.175781 17.488281 16.160156 17.488281 C 16.136719 17.488281 15.980469 17.570312 15.8125 17.675781 C 15.644531 17.777344 15.484375 17.863281 15.449219 17.863281 C 15.421875 17.863281 15.316406 17.792969 15.207031 17.707031 C 15.105469 17.628906 14.953125 17.515625 14.871094 17.464844 C 14.496094 17.230469 14.613281 17.03125 15.207031 16.902344 C 15.601562 16.816406 15.71875 16.722656 15.550781 16.625 C 15.503906 16.597656 15.253906 16.488281 14.996094 16.386719 C 14.714844 16.269531 14.503906 16.15625 14.460938 16.089844 C 14.394531 15.992188 14.40625 15.976562 14.558594 15.828125 C 14.792969 15.605469 15.109375 15.472656 15.390625 15.472656 C 15.832031 15.472656 16.082031 15.644531 16.496094 16.230469 C 16.777344 16.628906 17.082031 16.949219 17.214844 16.984375 C 17.253906 16.996094 17.339844 16.984375 17.394531 16.964844 C 17.542969 16.910156 17.53125 16.726562 17.367188 16.460938 C 17.105469 16.035156 17.054688 15.648438 17.214844 15.308594 C 17.3125 15.097656 17.441406 14.964844 17.761719 14.75 C 18.003906 14.589844 18.257812 14.246094 18.082031 14.316406 C 18.035156 14.335938 17.910156 14.363281 17.816406 14.378906 C 17.589844 14.410156 17.582031 14.328125 17.804688 14.199219 C 17.941406 14.121094 17.957031 14.089844 17.917969 14.035156 C 17.851562 13.957031 17.839844 13.960938 18.132812 13.855469 C 18.375 13.765625 18.625 13.558594 18.625 13.445312 C 18.625 13.394531 18.558594 13.386719 18.320312 13.398438 C 18.019531 13.417969 18.019531 13.417969 17.988281 13.285156 C 17.921875 13 17.761719 12.957031 17.5 13.152344 C 17.265625 13.324219 17.097656 13.304688 16.980469 13.105469 C 16.921875 13.015625 16.855469 12.941406 16.828125 12.941406 C 16.804688 12.941406 16.683594 13 16.566406 13.074219 C 16.449219 13.152344 16.265625 13.234375 16.167969 13.269531 C 16 13.324219 15.976562 13.320312 15.902344 13.226562 C 15.730469 13.019531 15.835938 12.921875 16.75 12.410156 C 17.121094 12.203125 17.214844 12.078125 17.15625 11.851562 C 17.109375 11.667969 17.007812 11.660156 16.710938 11.820312 C 16.425781 11.96875 16.292969 11.980469 16.214844 11.851562 C 16.144531 11.738281 16.195312 11.707031 16.550781 11.644531 C 17.085938 11.550781 17.207031 11.5625 17.394531 11.726562 Z M 17.394531 11.726562 "/>
</g>
</svg>
