<svg version="1.1" xmlns="http://www.w3.org/2000/svg" xmlns:xlink="http://www.w3.org/1999/xlink" width="24" height="24" viewBox="0,0,256,256"><g fill="#ffffff" fill-rule="none" stroke="none" stroke-width="1" stroke-linecap="butt" stroke-linejoin="miter" stroke-miterlimit="10" stroke-dasharray="" stroke-dashoffset="0" font-family="none" font-weight="none" font-size="none" text-anchor="none" style="mix-blend-mode: normal"><g transform="translate(-0.72607,-0.0244) scale(10.66667,10.66667)"><path d="M1.2,15l1.5,0.4l-0.1,1.2c0,0.2 0.1,0.3 0.2,0.4l0.5,0.3l-0.3,0.4c-0.2,0.2 -0.1,0.5 0.1,0.7v0l0.5,0.3v1.3c0,0.4 0.3,0.7 0.7,0.7h2.2c0.1,0 0.2,0 0.2,0.1c0.2,0.6 0.4,1.2 0.6,1.9c0,0.1 0.1,0.2 0.3,0.2h10c0.1,0 0.3,-0.1 0.3,-0.3v-0.1c-0.3,-0.7 -0.7,-1.6 -1,-2.6c-0.1,-0.2 0,-0.5 0.1,-0.7c0.3,-0.5 0.6,-1 1,-1.4c0.7,-1.1 1.4,-2 1.9,-3.2c0.1,-0.1 0.1,-0.3 0.2,-0.4h0.4l0.8,1.5c-0.4,0.4 -0.3,1.1 0.1,1.5c0.4,0.4 1.1,0.3 1.5,-0.1c0.4,-0.4 0.3,-1.1 -0.1,-1.5c-0.3,-0.2 -0.7,-0.3 -1,-0.2l-0.9,-1.6c0,-0.1 -0.1,-0.1 -0.2,-0.1h-4.2v0c0.2,-0.2 0.2,-0.4 0.1,-0.6l-0.5,-0.8c0.1,-0.1 0.1,-0.3 0.2,-0.5l1,-0.2c0.2,0 0.4,-0.2 0.4,-0.5v-0.6h3.5c0,-0.2 0,-0.3 0,-0.5c0,-0.4 0,-0.8 -0.1,-1.2c-0.1,-0.7 -0.3,-1.3 -0.5,-2h0.3c0.1,0 0.2,0 0.2,-0.1l0.9,-1.6c0.5,0.2 1.1,-0.1 1.3,-0.6c0.2,-0.5 -0.3,-1 -0.8,-1.2c-0.5,-0.2 -1.1,0.1 -1.3,0.6c-0.1,0.4 -0.1,0.8 0.2,1l-0.8,1.5h-4.6l-0.6,-0.6c-0.2,-0.2 -0.4,-0.2 -0.6,-0.1l-0.8,0.5c-0.1,-0.1 -0.3,-0.1 -0.5,-0.2l-0.2,-1c0,-0.2 -0.2,-0.4 -0.5,-0.4h-1.8c-0.2,0 -0.4,0.2 -0.5,0.4l-0.2,1c-0.2,0.1 -0.3,0.1 -0.5,0.2l-0.7,-0.5c-0.2,-0.1 -0.4,-0.1 -0.6,0l-1.2,1.2c-0.1,0.2 -0.2,0.4 0,0.6l0.5,0.8c-0.1,0.2 -0.1,0.3 -0.2,0.5l-0.9,0.2c-0.3,0 -0.4,0.2 -0.4,0.5v1.7c0,0.2 0.2,0.4 0.4,0.5l1,0.2c0.1,0.2 0.1,0.3 0.2,0.5l-0.5,0.8c-0.1,0.2 -0.1,0.4 0.1,0.6l1.2,1.2c0,0 0.2,0 0.4,-0.1l0.8,-0.5c0.1,0.1 0.3,0.1 0.5,0.2l0.2,1c0,0.2 0.2,0.4 0.5,0.4h1.7c0.2,0 0.4,-0.2 0.5,-0.4l0.2,-1c0.2,-0.1 0.3,-0.1 0.5,-0.2l0.8,0.5c0.2,0.1 0.4,0.1 0.6,-0.1l0.6,-0.6h4.2c0.1,-0.2 0.2,-0.3 0.2,-0.5c0.4,-1 0.6,-2.1 0.6,-3.1h0.2c0.1,0.6 0.7,0.9 1.3,0.7c0.6,-0.1 0.9,-0.7 0.7,-1.3c-0.2,-0.6 -0.7,-0.9 -1.3,-0.7c-0.4,0.1 -0.6,0.4 -0.7,0.7h-3.6v-0.5c0,-0.2 -0.2,-0.4 -0.4,-0.5l-1,-0.2c-0.1,-0.2 -0.2,-0.3 -0.2,-0.5l0.5,-0.8c0.1,-0.2 0.1,-0.4 -0.1,-0.6v0h3.9c-0.1,-0.2 -0.1,-0.4 -0.2,-0.5c-2.2,-4.6 -7.7,-6.6 -12.3,-4.4c-0.2,0.1 -0.4,0.2 -0.6,0.3c-2.4,1.3 -4,3.7 -4.3,6.5c0,0.1 0,0.1 0,0.2c0.4,1.2 0.4,2 0,2.4v0l-2,2.8c-0.2,0.2 -0.1,0.5 0.1,0.7c0.1,0 0.1,0 0.2,0.1z" fill-rule="evenodd"></path><g fill-rule="nonzero"><path d="M9.1,7.1h1.4v5.8h-1.4z"></path><path d="M12.5,7.1h1.3l1.5,5.8h-1.5l-0.2,-1.1h-1.1l-0.2,1.1h-1.3zM13.1,8.7l-0.4,2h0.7z"></path></g></g></g></svg>